# xmcd CD database file
#
# Track frame offsets:
#	150
#	22971
#	49524
#	67149
#	85257
#	104443
#	125379
#	144618
#	167376
#	186939
#	207048
#	229605
#
# Disc length: 3246 seconds
#
# Revision: 0
# Processed by: cddbd v1.5.1PL0 Copyright (c) Steve Scherf et al.
# Submitted via: CDex 1.51
#
DISCID=9c0cac0c
DTITLE=丁菲飛 - 樂源
DYEAR=2003
DGENRE=New Age
TTITLE0=原
TTITLE1=忍者
TTITLE2=誰
TTITLE3=向南飛
TTITLE4=自己的天空
TTITLE5=水墨畫
TTITLE6=我的愛爾蘭朋友
TTITLE7=夢之間
TTITLE8=湧
TTITLE9=聖湖
TTITLE10=敦煌
TTITLE11=圓
EXTD=YEAR: 2003
EXTT0=
EXTT1=
EXTT2=
EXTT3=
EXTT4=
EXTT5=
EXTT6=
EXTT7=
EXTT8=
EXTT9=
EXTT10=
EXTT11=
PLAYORDER=
